<mxfile host="Electron" modified="2023-10-11T07:52:25.030Z" agent="Mozilla/5.0 (Macintosh; Intel Mac OS X 10_15_7) AppleWebKit/537.36 (KHTML, like Gecko) draw.io/21.7.5 Chrome/114.0.5735.289 Electron/25.8.1 Safari/537.36" etag="Ru-ZnrdnfqQ18GJsmjhq" version="21.7.5" type="device">
  <diagram name="Page-1" id="VckUhsd7wdvhyUmcWN8E">
    <mxGraphModel dx="1523" dy="1242" grid="0" gridSize="10" guides="1" tooltips="1" connect="1" arrows="1" fold="1" page="0" pageScale="1" pageWidth="850" pageHeight="1100" math="0" shadow="0">
      <root>
        <mxCell id="0" />
        <mxCell id="1" parent="0" />
        <mxCell id="UACjsnFcftd3wg5-xkny-12" style="edgeStyle=none;curved=1;rounded=0;orthogonalLoop=1;jettySize=auto;html=1;fontSize=12;startSize=8;endSize=8;dashed=1;dashPattern=12 12;" edge="1" parent="1" source="UACjsnFcftd3wg5-xkny-1" target="UACjsnFcftd3wg5-xkny-11">
          <mxGeometry relative="1" as="geometry" />
        </mxCell>
        <mxCell id="UACjsnFcftd3wg5-xkny-14" value="IP1" style="edgeLabel;html=1;align=center;verticalAlign=middle;resizable=0;points=[];fontSize=16;" vertex="1" connectable="0" parent="UACjsnFcftd3wg5-xkny-12">
          <mxGeometry x="0.2403" y="2" relative="1" as="geometry">
            <mxPoint as="offset" />
          </mxGeometry>
        </mxCell>
        <mxCell id="UACjsnFcftd3wg5-xkny-1" value="proxy server" style="whiteSpace=wrap;html=1;aspect=fixed;fontSize=16;" vertex="1" parent="1">
          <mxGeometry x="107" y="-135" width="80" height="80" as="geometry" />
        </mxCell>
        <mxCell id="UACjsnFcftd3wg5-xkny-13" style="edgeStyle=none;curved=1;rounded=0;orthogonalLoop=1;jettySize=auto;html=1;entryX=0.025;entryY=0.638;entryDx=0;entryDy=0;entryPerimeter=0;fontSize=12;startSize=8;endSize=8;dashed=1;dashPattern=12 12;" edge="1" parent="1" source="UACjsnFcftd3wg5-xkny-2" target="UACjsnFcftd3wg5-xkny-11">
          <mxGeometry relative="1" as="geometry" />
        </mxCell>
        <mxCell id="UACjsnFcftd3wg5-xkny-15" value="IP2" style="edgeLabel;html=1;align=center;verticalAlign=middle;resizable=0;points=[];fontSize=16;" vertex="1" connectable="0" parent="UACjsnFcftd3wg5-xkny-13">
          <mxGeometry x="0.2465" y="2" relative="1" as="geometry">
            <mxPoint y="-1" as="offset" />
          </mxGeometry>
        </mxCell>
        <mxCell id="UACjsnFcftd3wg5-xkny-2" value="proxy server" style="whiteSpace=wrap;html=1;aspect=fixed;fontSize=16;" vertex="1" parent="1">
          <mxGeometry x="107" y="20" width="80" height="80" as="geometry" />
        </mxCell>
        <mxCell id="UACjsnFcftd3wg5-xkny-6" style="edgeStyle=none;curved=1;rounded=0;orthogonalLoop=1;jettySize=auto;html=1;fontSize=12;startSize=8;endSize=8;dashed=1;dashPattern=12 12;" edge="1" parent="1" source="UACjsnFcftd3wg5-xkny-5" target="UACjsnFcftd3wg5-xkny-1">
          <mxGeometry relative="1" as="geometry" />
        </mxCell>
        <mxCell id="UACjsnFcftd3wg5-xkny-7" style="edgeStyle=none;curved=1;rounded=0;orthogonalLoop=1;jettySize=auto;html=1;entryX=0;entryY=0.5;entryDx=0;entryDy=0;fontSize=12;startSize=8;endSize=8;dashed=1;dashPattern=12 12;" edge="1" parent="1" source="UACjsnFcftd3wg5-xkny-5" target="UACjsnFcftd3wg5-xkny-2">
          <mxGeometry relative="1" as="geometry" />
        </mxCell>
        <mxCell id="UACjsnFcftd3wg5-xkny-5" value="our script" style="whiteSpace=wrap;html=1;shape=mxgraph.basic.document;fontSize=16;" vertex="1" parent="1">
          <mxGeometry x="-105" y="-84" width="100" height="100" as="geometry" />
        </mxCell>
        <mxCell id="UACjsnFcftd3wg5-xkny-10" style="edgeStyle=none;curved=1;rounded=0;orthogonalLoop=1;jettySize=auto;html=1;entryX=0;entryY=0.5;entryDx=0;entryDy=0;entryPerimeter=0;fontSize=12;startSize=8;endSize=8;" edge="1" parent="1" source="UACjsnFcftd3wg5-xkny-8" target="UACjsnFcftd3wg5-xkny-5">
          <mxGeometry relative="1" as="geometry" />
        </mxCell>
        <mxCell id="UACjsnFcftd3wg5-xkny-8" value="" style="shape=umlActor;verticalLabelPosition=bottom;verticalAlign=top;html=1;outlineConnect=0;fontSize=16;" vertex="1" parent="1">
          <mxGeometry x="-221" y="-64" width="30" height="60" as="geometry" />
        </mxCell>
        <mxCell id="UACjsnFcftd3wg5-xkny-11" value="website" style="shape=manualInput;whiteSpace=wrap;html=1;fontSize=16;" vertex="1" parent="1">
          <mxGeometry x="307" y="-69" width="80" height="80" as="geometry" />
        </mxCell>
      </root>
    </mxGraphModel>
  </diagram>
</mxfile>
